<svg xmlns="http://www.w3.org/2000/svg" xmlns:xlink="http://www.w3.org/1999/xlink" version="1.1" x="0px" y="0px" viewBox="0 0 95 118.75" enable-background="new 0 0 95 95" xml:space="preserve"><path d="M34.861,67.292c-1.138,0.835-1.25,1.791-0.341,2.851c3.5,5.023,6.696,10.501,9.589,16.435c0,0.763,0.302,1.293,0.909,1.598  c1.065,0.914,1.979,0.766,2.744-0.454l6.62-8.218c2.733-3.499,4.864-6.392,6.389-8.674c0.606-1.217,0.343-2.169-0.801-2.855  c-1.14-0.682-2.092-0.488-2.854,0.572c-1.365,2.283-3.347,5.103-5.935,8.446l-2.279,2.74c0-7.15-0.08-18.715-0.229-34.696  c-0.152-15.981-0.232-28.227-0.232-36.746c0-1.372-0.679-2.054-2.054-2.054c-1.369,0-2.055,0.683-2.055,2.054  c0,8.519,0.078,20.692,0.23,36.521c0.15,15.825,0.229,27.157,0.229,34.006c-2.132-3.801-4.49-7.452-7.076-10.958  C36.952,66.643,36.006,66.457,34.861,67.292z"/></svg>